# xmcd CD database file
#
# Track frame offsets:
#	150
#	12979
#	27343
#	39658
#	52793
#	65651
#	81003
#	92602
#	105808
#	116243
#	129257
#	142516
#	154883
#	168207
#	182887
#	195986
#	208985
#	223354
#	235671
#	245128
#	258311
#	272251
#	287142
#	297657
#	311396
#
# Disc length: 4300 seconds
#
# Revision: 2
# Processed by: cddbd v1.5.2PL0 Copyright (c) Steve Scherf et al.
# Submitted via: CDex 1.51
#
DISCID=6210ca19
DTITLE=Nat King Cole - Vol.04 - I'm A Shy Guy
DYEAR=2005
DGENRE=Jazz
TTITLE0=Riffamarole
TTITLE1=Stormy Waeath
TTITLE2=If I Could Be With You
TTITLE3=I'm A Shy Guy
TTITLE4=You're Nobody 'Till Somebody Loves You
TTITLE5=Don't Blame Me
TTITLE6=What Can I Say After I Say I'm Sorry
TTITLE7=I'm Thru With Love
TTITLE8=Sweet Georgia Brown
TTITLE9=I Tho't You Ought To Know
TTITLE10=It Only Happens Once
TTITLE11=Black Market Stuff
TTITLE12=Laguna Leap
TTITLE13=I'll Never Be The Same
TTITLE14=Swingin' On Central
TTITLE15=Nat's Kick - Part 1
TTITLE16=Nat's Kick - Part 2
TTITLE17=Satchel Mouth Baby
TTITLE18=Solid Potato Salad
TTITLE19=It Is Better To Be By
TTITLE20=Come To Baby Do
TTITLE21=The Frim Fram Source
TTITLE22=I'm An Errand Boy For Rhythm
TTITLE23=This Way Out
TTITLE24=I Know That You Know
EXTD=
EXTT0=
EXTT1=
EXTT2=
EXTT3=
EXTT4=
EXTT5=
EXTT6=
EXTT7=
EXTT8=
EXTT9=
EXTT10=
EXTT11=
EXTT12=
EXTT13=
EXTT14=
EXTT15=
EXTT16=
EXTT17=
EXTT18=
EXTT19=
EXTT20=
EXTT21=
EXTT22=
EXTT23=
EXTT24=
PLAYORDER=
